# xmcd
#
# Track frame offsets: 
#        150
#        18257
#        30506
#        45440
#        60647
#        74666
#        87761
#        98835
#        113005
#        127707
#        138362
#        148984
#        162588
#        174269
#        192697
#        207000
#        217616
#        234218
#
# Disc length: 3376 seconds
#
# Revision: 3
# Processed by: cddbd v1.5.2PL0 Copyright (c) Steve Scherf et al.
# Submitted via: ExactAudioCopy v1.3
#
DISCID=ee0d2e12
DTITLE=Various Artist - The Magic Of Melody [CD2)
DYEAR=2004
DGENRE=Easy Listening
TTITLE0=Romantic Strings Orchestra - The Very Thought Of You
TTITLE1=The RCA Symphony Orchestra - Love Is A Many-Splendored Thing
TTITLE2=Henry Mancini - Days Of Wine And Roses
TTITLE3=Christian Colombier - Strangers In The Night
TTITLE4=Floyd Cramer - I Only Have Eyes For You
TTITLE5=Romantic Strings Orchestra - In The Still Of The Night
TTITLE6=Romantic Strings Orchestra - Dancing In The Dark
TTITLE7=Romantic Strings Orchestra - Just The Way You Are
TTITLE8=Romantic Strings Orchestra - You Light Up My Life
TTITLE9=Henry Mancini - Moon River
TTITLE10=Henry Mancini - As Time Goes By
TTITLE11=Roger Williams - Unforgettable
TTITLE12=Larry Dalton - It Had To Be You
TTITLE13=Roger Williams - Unchained Melody
TTITLE14=Ronnie Aldrich - True Love
TTITLE15=Roger Williams - What A Wonderful World
TTITLE16=Roger Williams - Embraceable You
TTITLE17=Roger Williams - Somewhere In Time
EXTD=
EXTT0=
EXTT1=
EXTT2=
EXTT3=
EXTT4=
EXTT5=
EXTT6=
EXTT7=
EXTT8=
EXTT9=
EXTT10=
EXTT11=
EXTT12=
EXTT13=
EXTT14=
EXTT15=
EXTT16=
EXTT17=
PLAYORDER=
